<?xml version="1.0" encoding="UTF-8"?>
<svg id="Layer_2" data-name="Layer 2" xmlns="http://www.w3.org/2000/svg" viewBox="0 0 199.94 199.05">
  <defs>
    <style>
      .cls-1 {
        fill: #fff;
      }
    </style>
  </defs>
  <g id="Layer_1-2" data-name="Layer 1">
    <g id="QZPMN2">
      <g>
        <path class="cls-1" d="M122.07,126.52c14.76,13.65,32.31,36.36,30.48,57.81-.05.63-.19,1.58-.74,1.96-1.07.74-2.96,1.34-4.17,1.94-1.88.93-3.16,1.59-5.16,2.38-.46.18-.89.67-1.39.77-1.86.37-1.42-1.32-1.79-2.62-10.89-38.97-50.25-68.98-88.46-78.03-14.03-3.32-28.99-4.49-43.2-1.26-2.09.29-4.17.91-6.22,1.44-.13-.03-.21-.12-.3-.22-.54-.65-.62-4.82-.71-5.94-.19-2.38-.59-4.73-.32-7.15.12-.4,3.55-2.51,4.15-2.85,14.19-7.93,34.6-7.1,50.06-3.84,25.09,5.31,49.05,18.29,67.77,35.59Z"/>
        <path class="cls-1" d="M146.37,99.71c15.13,14.13,33.15,36.79,31.86,58.76-.12,2.03-.86,4.78-1.54,6.72-1.06,3.01-2.94,5.22-5.56,7.01-.66-.53-.35-1.34-.47-2.04-4.95-29.53-31.41-57.49-55.42-73.54-30.17-20.18-74.41-34.89-110.3-23.07-.57.19-1.74,1.02-2.2.69-.55-.39.24-1.24.33-1.67,1.12-5.1,3.34-7.87,7.6-10.9,14.37-10.23,37.54-8.74,54-5.18,29.51,6.37,59.66,22.64,81.7,43.22Z"/>
        <path class="cls-1" d="M96.44,151.79c3.74,3.21,7.32,6.78,10.57,10.53,8.36,9.67,15.22,21.22,17.83,33.86-.05.35-3.13,1.01-3.69,1.11-2.9.56-5.82.82-8.75,1.13-1.63.17-5.38.91-6.79.5-.65-.19-1.71-2.77-2.13-3.45-13.88-22.42-36-38.93-61.27-46.49-7.48-2.24-15.67-3.87-23.56-4.27-1.39-.07-6.11.35-6.92-.44-.49-1.4-1.37-2.6-2.01-3.92-1.42-2.97-2.57-6.18-3.65-9.28-.3-.86-1.52-3.63-1.32-4.36.07-.23.41-.55.64-.63,10.27-3.01,21.2-3.25,31.77-1.86,21.73,2.86,42.78,13.42,59.27,27.56Z"/>
        <path class="cls-1" d="M111.11,34.03c.44.27,1,.14,1.43.28.4.14,1.1.8,1.52.99,3.28,1.47,6.47,2.86,9.68,4.5,21.86,11.16,43.57,27.67,58.32,47.46,6.7,8.98,13.82,21.56,14.83,32.94.22,2.44.35,7.5-.3,9.75-.06.21-.68,1.56-.95,1.01l-.86-2.73c-11.59-26.39-32.7-47.49-56.24-63.38-29.97-20.23-65.59-34.52-102.49-33.48l-9.96,1.08c-.34-.3,1.78-2.1,2.07-2.33,11-8.77,30.15-9.03,43.62-7.35,12.94,1.61,25.32,5.47,37.42,10.36.96.39,1.02.34,1.9.88Z"/>
        <path class="cls-1" d="M165.42,22.29c16.72,13.52,27.7,30.74,34.35,51.05.1.31.39,1.89-.08,1.87-.45-.41-.62-1.08-.98-1.53-22.72-28.36-56.64-50.45-90.84-62.54-8.16-2.88-16.88-4.98-25.59-6.56-.46-.08-.93-.39-1.51-.47-1.54-.2-3.28-.01-4.74-.83l5.53-1.3c29.08-5.97,60.86,1.7,83.86,20.3Z"/>
        <path class="cls-1" d="M84.77,189.87c2.11,2.45,3.99,5.05,5.9,7.66.41.85-.71.75-1.27.73-4.09-.21-9.94-1.84-13.97-2.91-22.15-5.87-41.63-19.31-55.34-37.7-.57-1.55,2.03-.61,2.87-.53,22.54,2.04,47.15,15.7,61.81,32.75Z"/>
      </g>
    </g>
  </g>
</svg>