<?xml version="1.0" encoding="UTF-8"?>
<svg id="Layer_2" data-name="Layer 2" xmlns="http://www.w3.org/2000/svg" viewBox="0 0 320.97 85.5">
  <defs>
    <style>
      .cls-1 {
        fill: #fff;
      }
    </style>
  </defs>
  <g id="Layer_1-2" data-name="Layer 1">
    <g id="joJ1Xh">
      <g>
        <polygon class="cls-1" points="17.37 3.3 17.37 40.13 50.64 3.3 71.19 3.3 41.52 36.95 73.31 84.59 52.76 84.59 29.03 50.3 17.37 63.21 17.37 84.59 0 84.59 0 3.3 17.37 3.3"/>
        <path class="cls-1" d="M250.86,3.3v28.79c10.99-12.57,34.54-9.67,40.13,6.69.64,1.88,1.82,6.52,1.82,8.35v37.47h-16.1v-34.93c0-1.63-1.78-6.38-2.78-7.81-4.06-5.75-14.24-5.64-19-.83-1.52,1.54-4.07,6.56-4.07,8.63v34.93h-16.1V3.3h16.1Z"/>
        <path class="cls-1" d="M136.87,71.04v13.55h-11.23c-.47,0-3.71-1.25-4.33-1.61-2.98-1.74-3.91-4.84-3.94-8.13-2.96,3.97-6.51,7.6-11.34,9.2-14.94,4.95-34.52-2.94-29.98-21.49,2.11-8.62,12.76-14.38,21.2-14.38h17.37c1.39-1.84.13-6.33-1.13-8.19-3.5-5.15-14.62-5.32-18.84-.98-1.19,1.22-1.45,2.82-2.48,4.08h-15.04c.98-18.54,27.29-21.96,40.97-16.59,18.51,7.27,11.39,26.57,12.94,42.12.84,2.76,3.42,2.53,5.84,2.42ZM115.26,58.76h-15.47c-2.41,0-7.17,2.8-7.75,5.38-2.33,10.39,10.71,11.55,17.16,7.4,4.69-3.02,5.64-7.55,6.06-12.79Z"/>
        <path class="cls-1" d="M223.74,43.1h-15.25c-1.34-8.02-14.62-9.6-20.12-5.5-3.52,2.62-3.38,7.25.96,8.78,9.91,3.49,30.09.56,34.5,13.37s-5.2,22.32-17.02,24.64c-15.15,2.96-35.92-.87-37.72-19.27h15.68c.47,9.4,16.14,10.81,22.01,6.54,3.73-2.72,2.91-7.84-1.57-9.38-9.45-3.25-29.43-1.11-33.77-12.83-2.69-7.26.06-15.14,5.93-19.88,12.67-10.24,45.32-6.67,46.39,13.54Z"/>
        <rect class="cls-1" x="143.22" y="3.3" width="16.53" height="81.3"/>
        <rect class="cls-1" x="303.4" y="24.89" width="16.53" height="59.7"/>
        <path class="cls-1" d="M311.37,0c11.9-.44,12.77,16.63,2.37,18.07-14.52,2.01-15.06-17.6-2.37-18.07Z"/>
      </g>
    </g>
  </g>
</svg>