<?xml version="1.0" encoding="UTF-8"?>
<svg id="Layer_2" data-name="Layer 2" xmlns="http://www.w3.org/2000/svg" viewBox="0 0 2616.09 3017.73">
  <defs>
    <style>
      .cls-1 {
        fill: #fff;
      }
    </style>
  </defs>
  <g id="Layer_1-2" data-name="Layer 1">
    <g>
      <path class="cls-1" d="M1391.02,2091.52c99.69-42.55,884.07-827.55,1098.63-1052.51,44.5-46.65,81.12-75.58,71.57-146.96-5.63-42.11-70.28-189.25-103.61-214.97-45.45-35.08-108.52-11.96-146.73,22.46-137.67,124.04-1650.07,1650.11-1939.48,1937.08-111.87,110.93-199.14,176.46-136.88,353.76,8.17,23.25,0,35.96,26.39,20.67,237.32-225.52,459.58-468.17,692.71-697.22,69.7-68.48,117.36-124.96,214.11-160.86,72.85-27.03,150.28-30.3,223.29-61.46Z"/>
      <path class="cls-1" d="M2612.81,1128.04c-15.22-29.05-67.68-24.99-86.22-1.33-172.34,169.71-1171.53,1190.22-1385.61,1391.42-44.69,62.56,1.2,132.04,76.6,99.16,64.56-28.15,144.09-83.43,205.6-121.44,804.68-497.23,1070.01-726.92,1189.65-1285.75,3.06-14.27,5.48-71.53-.03-82.05Z"/>
      <path class="cls-1" d="M936.12,1777.59c39.65-10.35,82.72-14.8,122.55-26.87,155.97-47.29,282.67-211.99,395.29-326.45,28.79-29.26,786.16-776.57,861.22-858.56,46.84-51.17,41.89-87.37,9.4-144.66-34.59-61-135.27-183.82-216.82-154.16-10.79,3.92-20.42,10.5-28.36,18.8-301.57,315.24-1550.58,1551.95-1850.41,1856.13-81.92,83.11-162.03,137.85-175.92,266.71-1.99,18.45-.97,132.48,15.19,136.36,7.28,1.75,394.07-384.88,535.77-524.21,108.61-106.79,175.1-202.11,332.08-243.08Z"/>
      <path class="cls-1" d="M383.67,1591.65c78.35-78.09,197.05-229.71,305.52-252.7,74.59-15.81,138.18,3.46,214.09-31.19,68.37-31.22,196.48-172.19,256.06-231.59,49.09-48.94,627.79-634.55,819.05-821.89,48.39-74.15,30.22-123.46-41.41-167.37-117.63-72.11-218.29-81.85-324.15,14.66-87.69,79.95-1163.45,1163.38-1314.71,1314.39C160.5,1553.34-20.26,1681.6,1.85,1906.44c1.51,15.39,15.22,58.76,32.61,35.19,113.84-119.23,232.49-233.63,349.21-349.98Z"/>
      <path class="cls-1" d="M271.2,1312.84c161.25-162.03,960.25-954.8,1217.7-1214.49,13.86-13.98,21.31-33.24,19.78-52.87-4.14-53.15-67.71-46.44-123.79-43.56-205.92,10.57-375.97,92.72-535.73,219.84-132.77,105.64-357.18,374.93-601.36,957.72-11.71,27.96-43.92,81.34-43.05,109.44,1.05,34.14,41.93,46.06,66.46,23.92Z"/>
    </g>
  </g>
</svg>