<?xml version="1.0" encoding="UTF-8"?>
<svg id="Layer_2" data-name="Layer 2" xmlns="http://www.w3.org/2000/svg" viewBox="0 0 1570.45 1810.49">
  <defs>
    <style>
      .cls-1 {
        fill: #fff;
      }
    </style>
  </defs>
  <g id="Layer_1-2" data-name="Layer 1">
    <path class="cls-1" d="M1569.15,1356.22l-788.1,454.27L0,1361.89,2.05,448.18,780.24.02c10.79-1.07,93.53,48.96,110.51,58.55,172.35,97.34,342.4,199.3,513.37,299.06-22.91,9.9-50.22,33.84-72.23,42.32-4.51,1.74-7.73,2.94-12.35.36L784.26,93.43,80.6,495.99l1.2,815.82,702.43,406.17,702.38-406.22,2.07-631.69,80.47-45.3v721.45Z"/>
    <path class="cls-1" d="M587.47,1036.75v275.04h-118.48v-397.75h425.25c4.66,0,37.38-15.4,44.05-19.42,87.23-52.51,86.92-187.15-.92-239.52-7.96-4.75-40.47-20.33-47.37-20.33h-421.02v-118.48h437.95c27.18,0,91.91,33.01,114.16,50.87,101.8,81.72,136.07,219.54,69.09,335.48-107.63,186.29-325.1,119.52-502.71,134.11Z"/>
    <path class="cls-1" d="M1116.4,1303.32h-133.29l-107.9-186.14c40.64-1.39,83.21-8.67,120.69-24.8l120.5,210.93Z"/>
    <path class="cls-1" d="M1404.78,545l1.49-92.15c2.23-3.71,66.96-41.62,74.34-44.47,5.44-2.1,6.79-2.26,12.45-.44,6.22,1.99,72.13,40.97,74.01,44.86,1.54,25.11,5.18,58.28,2.34,82.78-.9,7.76-.43,9.08-7.02,14.14-6.18,4.75-71.43,41.14-75.74,41.14l-81.86-45.86Z"/>
  </g>
</svg>